<?xml version="1.0"?>
<svg xmlns:rdf="http://www.w3.org/1999/02/22-rdf-syntax-ns#" xmlns="http://www.w3.org/2000/svg" xmlns:cc="http://creativecommons.org/ns#" xmlns:xlink="http://www.w3.org/1999/xlink" xmlns:dc="http://purl.org/dc/elements/1.1/" xmlns:svg="http://www.w3.org/2000/svg" id="svg2" viewBox="0 0 48 48" version="1.0">
  <defs id="defs4">
    <linearGradient id="linearGradient2428" y2="63.66" gradientUnits="userSpaceOnUse" x2="63.488" y1="8.6307" x1="10.018">
      <stop id="stop1366" stop-color="#236b0d" offset="0"/>
      <stop id="stop1368" stop-color="#0a2205" offset="1"/>
    </linearGradient>
    <radialGradient id="radialGradient2430" gradientUnits="userSpaceOnUse" cy="14.922" cx="21.96" gradientTransform="matrix(0 1.0887 -1.1024 .000016588 41.488 -4.7323)" r="27.5">
      <stop id="stop2124" stop-color="#2edc32" offset="0"/>
      <stop id="stop2126" stop-color="#11661d" offset="1"/>
    </radialGradient>
    <linearGradient id="linearGradient2432" y2="43.969" gradientUnits="userSpaceOnUse" x2="39.939" y1="22.962" x1="24.916">
      <stop id="stop2162" stop-color="#d3cece" offset="0"/>
      <stop id="stop2164" stop-color="#474240" offset="1"/>
    </linearGradient>
    <linearGradient id="linearGradient2434" y2="49.099" gradientUnits="userSpaceOnUse" x2="39.817" y1="28.824" x1="24.916">
      <stop id="stop2173" stop-color="#fff" offset="0"/>
      <stop id="stop2175" stop-color="#a3a5ee" stop-opacity="0" offset="1"/>
    </linearGradient>
  </defs>
  <g id="layer1">
    <g id="g2422" transform="translate(-8 -8)">
      <path id="path1373" fill="url(#linearGradient2428)" d="m32 8.6307c-12.887 0-23.369 10.482-23.369 23.369-0.0003 12.887 10.482 23.369 23.369 23.369s23.369-10.482 23.369-23.369-10.482-23.369-23.369-23.369z"/>
      <path id="path1339" fill="url(#radialGradient2430)" d="m54.5 32c0 12.42-10.08 22.5-22.5 22.5s-22.5-10.08-22.5-22.5 10.08-22.5 22.5-22.5 22.5 10.08 22.5 22.5z"/>
      <path id="path1430" fill="url(#linearGradient2432)" d="m36.812 14.438c-0.348 0.043-0.646 0.269-0.781 0.593l-10.187 24.907-7.406-10.594c-0.19-0.279-0.509-0.441-0.846-0.428s-0.643 0.198-0.811 0.49l-3.625 6.032c-0.225 0.385-0.16 0.873 0.156 1.187l12.063 12.063c0.194 0.193 0.459 0.296 0.732 0.284 0.274-0.012 0.529-0.138 0.705-0.347l22.938-26.563c0.191-0.229 0.267-0.533 0.207-0.825-0.061-0.292-0.253-0.541-0.519-0.675l-12.063-6.031c-0.174-0.086-0.37-0.119-0.563-0.093z"/>
      <path id="path1348" fill="url(#linearGradient2434)" d="m37.188 16.125l-10.407 25.469c-0.118 0.284-0.382 0.48-0.688 0.513s-0.605-0.104-0.781-0.357l-7.624-10.906-3.032 5 11.406 11.406 22.126-25.625-11-5.5z"/>
    </g>
  </g>
  <metadata>
    <rdf:RDF>
      <cc:Work>
        <dc:format>image/svg+xml</dc:format>
        <dc:type rdf:resource="http://purl.org/dc/dcmitype/StillImage"/>
        <cc:license rdf:resource="http://creativecommons.org/licenses/publicdomain/"/>
        <dc:publisher>
          <cc:Agent rdf:about="http://openclipart.org/">
            <dc:title>Openclipart</dc:title>
          </cc:Agent>
        </dc:publisher>
        <dc:title>green_tick</dc:title>
        <dc:date>2008-05-26T11:54:15</dc:date>
        <dc:description>clip art, clipart, icon, icon, image, media, png, public domain, svg, validation, validation, </dc:description>
        <dc:source>http://openclipart.org/detail/17014/green_tick-by-jean_victor_balin</dc:source>
        <dc:creator>
          <cc:Agent>
            <dc:title>jean_victor_balin</dc:title>
          </cc:Agent>
        </dc:creator>
        <dc:subject>
          <rdf:Bag>
            <rdf:li>clip art</rdf:li>
            <rdf:li>clipart</rdf:li>
            <rdf:li>icon</rdf:li>
            <rdf:li>image</rdf:li>
            <rdf:li>media</rdf:li>
            <rdf:li>png</rdf:li>
            <rdf:li>public domain</rdf:li>
            <rdf:li>svg</rdf:li>
            <rdf:li>validation</rdf:li>
          </rdf:Bag>
        </dc:subject>
      </cc:Work>
      <cc:License rdf:about="http://creativecommons.org/licenses/publicdomain/">
        <cc:permits rdf:resource="http://creativecommons.org/ns#Reproduction"/>
        <cc:permits rdf:resource="http://creativecommons.org/ns#Distribution"/>
        <cc:permits rdf:resource="http://creativecommons.org/ns#DerivativeWorks"/>
      </cc:License>
    </rdf:RDF>
  </metadata>
</svg>
